<svg xmlns="http://www.w3.org/2000/svg" version="1.1" xmlns:xlink="http://www.w3.org/1999/xlink" xmlns:svgjs="http://svgjs.dev/svgjs" viewBox="0 0 800 800"><defs><linearGradient x1="50%" y1="0%" x2="50%" y2="100%" id="cccoil-grad"><stop stop-color="hsl(230, 55%, 50%)" stop-opacity="1" offset="0%"></stop><stop stop-color="hsl(230, 55%, 70%)" stop-opacity="1" offset="100%"></stop></linearGradient></defs><g stroke="url(#cccoil-grad)" fill="none" stroke-linecap="round"><circle r="435" cx="400" cy="400" stroke-width="11.5" stroke-dasharray="2733 2733" transform="rotate(360, 400, 400)" stroke-dashoffset="110" opacity="0.05"></circle><circle r="420" cx="400" cy="400" stroke-width="11.5" stroke-dasharray="2545 2639" transform="rotate(347, 400, 400)" stroke-dashoffset="110" opacity="0.08"></circle><circle r="405" cx="400" cy="400" stroke-width="11.5" stroke-dasharray="2363 2545" transform="rotate(334, 400, 400)" stroke-dashoffset="110" opacity="0.12"></circle><circle r="390" cx="400" cy="400" stroke-width="11.5" stroke-dasharray="2188 2450" transform="rotate(321, 400, 400)" stroke-dashoffset="110" opacity="0.15"></circle><circle r="375" cx="400" cy="400" stroke-width="11.5" stroke-dasharray="2020 2356" transform="rotate(309, 400, 400)" stroke-dashoffset="110" opacity="0.19"></circle><circle r="360" cx="400" cy="400" stroke-width="11.5" stroke-dasharray="1858 2262" transform="rotate(296, 400, 400)" stroke-dashoffset="110" opacity="0.22"></circle><circle r="345" cx="400" cy="400" stroke-width="11.5" stroke-dasharray="1703 2168" transform="rotate(283, 400, 400)" stroke-dashoffset="110" opacity="0.25"></circle><circle r="330" cx="400" cy="400" stroke-width="11.5" stroke-dasharray="1555 2073" transform="rotate(270, 400, 400)" stroke-dashoffset="110" opacity="0.29"></circle><circle r="315" cx="400" cy="400" stroke-width="11.5" stroke-dasharray="1414 1979" transform="rotate(257, 400, 400)" stroke-dashoffset="110" opacity="0.32"></circle><circle r="300" cx="400" cy="400" stroke-width="11.5" stroke-dasharray="1279 1885" transform="rotate(244, 400, 400)" stroke-dashoffset="110" opacity="0.36"></circle><circle r="285" cx="400" cy="400" stroke-width="11.5" stroke-dasharray="1151 1791" transform="rotate(231, 400, 400)" stroke-dashoffset="110" opacity="0.39"></circle><circle r="270" cx="400" cy="400" stroke-width="11.5" stroke-dasharray="1030 1696" transform="rotate(219, 400, 400)" stroke-dashoffset="110" opacity="0.42"></circle><circle r="255" cx="400" cy="400" stroke-width="11.5" stroke-dasharray="916 1602" transform="rotate(206, 400, 400)" stroke-dashoffset="110" opacity="0.46"></circle><circle r="240" cx="400" cy="400" stroke-width="11.5" stroke-dasharray="808 1508" transform="rotate(193, 400, 400)" stroke-dashoffset="110" opacity="0.49"></circle><circle r="225" cx="400" cy="400" stroke-width="11.5" stroke-dasharray="707 1414" transform="rotate(180, 400, 400)" stroke-dashoffset="110" opacity="0.53"></circle><circle r="210" cx="400" cy="400" stroke-width="11.5" stroke-dasharray="613 1319" transform="rotate(167, 400, 400)" stroke-dashoffset="110" opacity="0.56"></circle><circle r="195" cx="400" cy="400" stroke-width="11.5" stroke-dasharray="525 1225" transform="rotate(154, 400, 400)" stroke-dashoffset="110" opacity="0.59"></circle><circle r="180" cx="400" cy="400" stroke-width="11.5" stroke-dasharray="444 1131" transform="rotate(141, 400, 400)" stroke-dashoffset="110" opacity="0.63"></circle><circle r="165" cx="400" cy="400" stroke-width="11.5" stroke-dasharray="370 1037" transform="rotate(129, 400, 400)" stroke-dashoffset="110" opacity="0.66"></circle><circle r="150" cx="400" cy="400" stroke-width="11.5" stroke-dasharray="303 942" transform="rotate(116, 400, 400)" stroke-dashoffset="110" opacity="0.69"></circle><circle r="135" cx="400" cy="400" stroke-width="11.5" stroke-dasharray="242 848" transform="rotate(103, 400, 400)" stroke-dashoffset="110" opacity="0.73"></circle><circle r="120" cx="400" cy="400" stroke-width="11.5" stroke-dasharray="188 754" transform="rotate(90, 400, 400)" stroke-dashoffset="110" opacity="0.76"></circle><circle r="105" cx="400" cy="400" stroke-width="11.5" stroke-dasharray="141 660" transform="rotate(77, 400, 400)" stroke-dashoffset="110" opacity="0.80"></circle><circle r="90" cx="400" cy="400" stroke-width="11.5" stroke-dasharray="101 565" transform="rotate(64, 400, 400)" stroke-dashoffset="110" opacity="0.83"></circle><circle r="75" cx="400" cy="400" stroke-width="11.5" stroke-dasharray="67 471" transform="rotate(51, 400, 400)" stroke-dashoffset="110" opacity="0.86"></circle><circle r="60" cx="400" cy="400" stroke-width="11.5" stroke-dasharray="40 377" transform="rotate(39, 400, 400)" stroke-dashoffset="110" opacity="0.90"></circle><circle r="45" cx="400" cy="400" stroke-width="11.5" stroke-dasharray="20 283" transform="rotate(26, 400, 400)" stroke-dashoffset="110" opacity="0.93"></circle><circle r="30" cx="400" cy="400" stroke-width="11.5" stroke-dasharray="7 188" transform="rotate(13, 400, 400)" stroke-dashoffset="110" opacity="0.97"></circle><circle r="15" cx="400" cy="400" stroke-width="11.5" stroke-dasharray="0 94" stroke-dashoffset="110" opacity="1.00"></circle></g></svg>