<svg xmlns="http://www.w3.org/2000/svg" version="1.1" xmlns:xlink="http://www.w3.org/1999/xlink" xmlns:svgjs="http://svgjs.dev/svgjs" viewBox="0 0 800 800"><defs><linearGradient x1="50%" y1="0%" x2="50%" y2="100%" id="ffflurry-grad" gradientTransform="rotate(270)"><stop stop-color="hsl(238, 82%, 13%)" stop-opacity="1" offset="0%"></stop><stop stop-color="hsl(1.4, 100%, 67%)" stop-opacity="1" offset="45%"></stop><stop stop-color="hsl(167, 52%, 78%)" stop-opacity="1" offset="100%"></stop></linearGradient></defs><rect width="100%" height="100%" fill="hsl(238, 82%, 13%)"></rect><g fill="url(#ffflurry-grad)"><rect width="381" height="3" x="46.5" y="132.5" rx="1.5" transform="rotate(45, 237, 134)" opacity="0.25"></rect><rect width="84" height="3" x="582" y="394.5" rx="1.5" transform="rotate(45, 624, 396)" opacity="0.81"></rect><rect width="235" height="3" x="532.5" y="168.5" rx="1.5" transform="rotate(45, 650, 170)" opacity="0.36"></rect><rect width="562" height="3" x="473" y="682.5" rx="1.5" transform="rotate(45, 754, 684)" opacity="0.89"></rect><rect width="147" height="3" x="292.5" y="290.5" rx="1.5" transform="rotate(45, 366, 292)" opacity="0.17"></rect><rect width="164" height="3" x="484" y="642.5" rx="1.5" transform="rotate(45, 566, 644)" opacity="0.79"></rect><rect width="53" height="3" x="424.5" y="191.5" rx="1.5" transform="rotate(45, 451, 193)" opacity="0.53"></rect><rect width="207" height="3" x="441.5" y="479.5" rx="1.5" transform="rotate(45, 545, 481)" opacity="0.82"></rect><rect width="146" height="3" x="240" y="331.5" rx="1.5" transform="rotate(45, 313, 333)" opacity="0.25"></rect><rect width="408" height="3" x="-3" y="230.5" rx="1.5" transform="rotate(45, 201, 232)" opacity="0.68"></rect><rect width="77" height="3" x="467.5" y="740.5" rx="1.5" transform="rotate(45, 506, 742)" opacity="0.59"></rect><rect width="274" height="3" x="371" y="160.5" rx="1.5" transform="rotate(45, 508, 162)" opacity="0.31"></rect><rect width="603" height="3" x="3.5" y="462.5" rx="1.5" transform="rotate(45, 305, 464)" opacity="0.44"></rect><rect width="548" height="3" x="-128" y="617.5" rx="1.5" transform="rotate(45, 146, 619)" opacity="0.14"></rect><rect width="443" height="3" x="-81.5" y="300.5" rx="1.5" transform="rotate(45, 140, 302)" opacity="0.43"></rect><rect width="302" height="3" x="551" y="121.5" rx="1.5" transform="rotate(45, 702, 123)" opacity="0.17"></rect><rect width="395" height="3" x="389.5" y="111.5" rx="1.5" transform="rotate(45, 587, 113)" opacity="0.29"></rect><rect width="105" height="3" x="63.5" y="501.5" rx="1.5" transform="rotate(45, 116, 503)" opacity="0.31"></rect><rect width="238" height="3" x="501" y="237.5" rx="1.5" transform="rotate(45, 620, 239)" opacity="0.42"></rect><rect width="232" height="3" x="298" y="253.5" rx="1.5" transform="rotate(45, 414, 255)" opacity="0.12"></rect><rect width="176" height="3" x="631" y="224.5" rx="1.5" transform="rotate(45, 719, 226)" opacity="0.94"></rect><rect width="360" height="3" x="300" y="534.5" rx="1.5" transform="rotate(45, 480, 536)" opacity="0.16"></rect><rect width="70" height="3" x="143" y="48.5" rx="1.5" transform="rotate(45, 178, 50)" opacity="0.82"></rect><rect width="213" height="3" x="360.5" y="650.5" rx="1.5" transform="rotate(45, 467, 652)" opacity="0.13"></rect><rect width="156" height="3" x="195" y="233.5" rx="1.5" transform="rotate(45, 273, 235)" opacity="0.99"></rect><rect width="178" height="3" x="169" y="751.5" rx="1.5" transform="rotate(45, 258, 753)" opacity="0.16"></rect><rect width="429" height="3" x="-110.5" y="382.5" rx="1.5" transform="rotate(45, 104, 384)" opacity="0.10"></rect><rect width="139" height="3" x="456.5" y="423.5" rx="1.5" transform="rotate(45, 526, 425)" opacity="0.27"></rect><rect width="420" height="3" x="461" y="552.5" rx="1.5" transform="rotate(45, 671, 554)" opacity="0.77"></rect><rect width="201" height="3" x="-62.5" y="121.5" rx="1.5" transform="rotate(45, 38, 123)" opacity="0.63"></rect><rect width="451" height="3" x="273.5" y="279.5" rx="1.5" transform="rotate(45, 499, 281)" opacity="0.69"></rect><rect width="156" height="3" x="260" y="123.5" rx="1.5" transform="rotate(45, 338, 125)" opacity="0.31"></rect><rect width="164" height="3" x="270" y="681.5" rx="1.5" transform="rotate(45, 352, 683)" opacity="0.24"></rect><rect width="255" height="3" x="-85.5" y="536.5" rx="1.5" transform="rotate(45, 42, 538)" opacity="0.94"></rect><rect width="524" height="3" x="131" y="758.5" rx="1.5" transform="rotate(45, 393, 760)" opacity="0.13"></rect><rect width="334" height="3" x="240" y="516.5" rx="1.5" transform="rotate(45, 407, 518)" opacity="0.86"></rect><rect width="50" height="3" x="61" y="248.5" rx="1.5" transform="rotate(45, 86, 250)" opacity="0.24"></rect><rect width="46" height="3" x="398" y="449.5" rx="1.5" transform="rotate(45, 421, 451)" opacity="0.13"></rect><rect width="288" height="3" x="203" y="566.5" rx="1.5" transform="rotate(45, 347, 568)" opacity="0.91"></rect><rect width="147" height="3" x="343.5" y="317.5" rx="1.5" transform="rotate(45, 417, 319)" opacity="0.96"></rect><rect width="278" height="3" x="281" y="599.5" rx="1.5" transform="rotate(45, 420, 601)" opacity="0.29"></rect><rect width="34" height="3" x="519" y="565.5" rx="1.5" transform="rotate(45, 536, 567)" opacity="0.29"></rect><rect width="288" height="3" x="237" y="381.5" rx="1.5" transform="rotate(45, 381, 383)" opacity="0.51"></rect><rect width="208" height="3" x="541" y="752.5" rx="1.5" transform="rotate(45, 645, 754)" opacity="0.59"></rect><rect width="413" height="3" x="432.5" y="464.5" rx="1.5" transform="rotate(45, 639, 466)" opacity="0.23"></rect><rect width="122" height="3" x="706" y="81.5" rx="1.5" transform="rotate(45, 767, 83)" opacity="0.66"></rect><rect width="559" height="3" x="204.5" y="365.5" rx="1.5" transform="rotate(45, 484, 367)" opacity="0.59"></rect><rect width="206" height="3" x="33" y="742.5" rx="1.5" transform="rotate(45, 136, 744)" opacity="0.21"></rect><rect width="384" height="3" x="336" y="44.5" rx="1.5" transform="rotate(45, 528, 46)" opacity="0.75"></rect><rect width="391" height="3" x="-148.5" y="193.5" rx="1.5" transform="rotate(45, 47, 195)" opacity="0.93"></rect><rect width="123" height="3" x="500.5" y="219.5" rx="1.5" transform="rotate(45, 562, 221)" opacity="0.43"></rect><rect width="228" height="3" x="480" y="322.5" rx="1.5" transform="rotate(45, 594, 324)" opacity="0.20"></rect><rect width="388" height="3" x="127" y="274.5" rx="1.5" transform="rotate(45, 321, 276)" opacity="0.63"></rect><rect width="510" height="3" x="-217" y="418.5" rx="1.5" transform="rotate(45, 38, 420)" opacity="0.40"></rect><rect width="252" height="3" x="-83" y="691.5" rx="1.5" transform="rotate(45, 43, 693)" opacity="0.87"></rect><rect width="285" height="3" x="444.5" y="529.5" rx="1.5" transform="rotate(45, 587, 531)" opacity="0.29"></rect><rect width="225" height="3" x="661.5" y="241.5" rx="1.5" transform="rotate(45, 774, 243)" opacity="0.61"></rect><rect width="192" height="3" x="45" y="165.5" rx="1.5" transform="rotate(45, 141, 167)" opacity="0.31"></rect><rect width="88" height="3" x="-7" y="310.5" rx="1.5" transform="rotate(45, 37, 312)" opacity="0.42"></rect><rect width="162" height="3" x="94" y="439.5" rx="1.5" transform="rotate(45, 175, 441)" opacity="0.94"></rect><rect width="738" height="3" x="58" y="60.5" rx="1.5" transform="rotate(45, 427, 62)" opacity="0.09"></rect><rect width="154" height="3" x="578" y="642.5" rx="1.5" transform="rotate(45, 655, 644)" opacity="0.24"></rect><rect width="324" height="3" x="63" y="314.5" rx="1.5" transform="rotate(45, 225, 316)" opacity="0.72"></rect><rect width="473" height="3" x="22.5" y="645.5" rx="1.5" transform="rotate(45, 259, 647)" opacity="0.63"></rect><rect width="445" height="3" x="446.5" y="282.5" rx="1.5" transform="rotate(45, 669, 284)" opacity="0.14"></rect><rect width="275" height="3" x="52.5" y="377.5" rx="1.5" transform="rotate(45, 190, 379)" opacity="0.35"></rect><rect width="452" height="3" x="483" y="351.5" rx="1.5" transform="rotate(45, 709, 353)" opacity="0.63"></rect><rect width="269" height="3" x="263.5" y="167.5" rx="1.5" transform="rotate(45, 398, 169)" opacity="0.75"></rect><rect width="371" height="3" x="585.5" y="370.5" rx="1.5" transform="rotate(45, 771, 372)" opacity="0.80"></rect><rect width="430" height="3" x="450" y="35.5" rx="1.5" transform="rotate(45, 665, 37)" opacity="0.40"></rect><rect width="682" height="3" x="407" y="489.5" rx="1.5" transform="rotate(45, 748, 491)" opacity="0.95"></rect><rect width="282" height="3" x="165" y="40.5" rx="1.5" transform="rotate(45, 306, 42)" opacity="0.84"></rect><rect width="437" height="3" x="122.5" y="210.5" rx="1.5" transform="rotate(45, 341, 212)" opacity="0.37"></rect><rect width="675" height="3" x="-270.5" y="48.5" rx="1.5" transform="rotate(45, 67, 50)" opacity="0.18"></rect><rect width="431" height="3" x="47.5" y="552.5" rx="1.5" transform="rotate(45, 263, 554)" opacity="0.69"></rect><rect width="208" height="3" x="171" y="390.5" rx="1.5" transform="rotate(45, 275, 392)" opacity="0.12"></rect><rect width="364" height="3" x="17" y="515.5" rx="1.5" transform="rotate(45, 199, 517)" opacity="0.10"></rect></g></svg>